<?xml version="1.0" encoding="utf-8"?>
<!-- Generator: Adobe Illustrator 19.2.0, SVG Export Plug-In . SVG Version: 6.00 Build 0)  -->
<svg version="1.1" id="Calque_1" xmlns="http://www.w3.org/2000/svg" xmlns:xlink="http://www.w3.org/1999/xlink" x="0px" y="0px"
	 viewBox="0 0 300 135" style="enable-background:new 0 0 300 135;" xml:space="preserve">
<style type="text/css">
	.st0{fill:#FFFFFF;}
	.st1{fill-rule:evenodd;clip-rule:evenodd;fill:#FFFFFF;}
	.st2{fill:#009EE2;}
	.st3{fill:#B3DBF2;}
</style>
<path class="st0" d="M44.1,113.1h18.8c1.4,0,2.6,0.9,2.6,2.1v1c0,0,0,0,0,0c0.2-0.6,0.9-1.1,1.7-1.6h-1.7v0v-4.3
	c0-0.9-1.2-1.7-2.6-1.7H44.1c-0.3,0-0.5,0-0.7,0.1c-0.7,0.1-1.3,0.5-1.6,1c-0.1,0.1-0.1,0.2-0.1,0.3c0,0,0,0.1,0,0.1
	c0,0.1-0.1,0.2-0.1,0.3v0.9v1.3v0.8C42.6,113.1,43.7,113.1,44.1,113.1"/>
<path class="st0" d="M171.6,108.6h-18.1c-1.4,0-2.6,0.8-2.6,1.7v0.7v3.4v0.2h-2.6c0.7,0.5,1.1,1.1,1.1,1.6v0.6l-0.1,0c0,0,0,0,0,0.1
	v0.8h1.5h0.1V116v-0.8c0-1.1,1.2-2.1,2.6-2.1h18.2h0.7c0.6,0,1.6,0.2,2.6,0.6v-2v-1.4c0-0.3-0.1-0.5-0.3-0.7c0,0-0.1,0-0.1-0.1
	c-0.4-0.5-1.3-0.9-2.3-0.9H171.6z"/>
<path class="st0" d="M176.8,114.6c0.6,0.4,1.1,0.8,1.4,1.3c0,0,0.1,0.1,0.1,0.1v-0.8c0-1.1,1.2-2.1,2.6-2.1h18.9
	c0.5,0,1.5,0,2.6,0.1v-0.7v-2.2c0-0.3-0.2-0.6-0.4-0.8c-0.3-0.4-0.9-0.6-1.6-0.8c0,0,0,0-0.1,0c-0.2,0-0.4-0.1-0.7-0.1h-18.9
	c-1.4,0-2.6,0.8-2.6,1.7v4.2v0.1H176.8z"/>
<path class="st0" d="M205.9,114.3c0.4-0.7,1.3-1.2,2.4-1.2h18.8c0.4,0,1.4-0.1,2.5,0v-2.8c0-0.3-0.1-0.5-0.3-0.7
	c-0.4-0.6-1.3-1-2.4-1h-18.8c-1.4,0-2.6,0.8-2.6,1.7l0,0.9v2.8c0,0,0.1,0,0.1,0C205.8,114.1,205.8,114.2,205.9,114.3"/>
<path class="st0" d="M233.7,113.8c0.5-0.4,1.1-0.7,2-0.7h18.8c0.3,0,1.3-0.1,2.6-0.1v-2.3l0-0.4c0-0.2-0.1-0.4-0.2-0.5
	c0,0,0-0.1-0.1-0.2c-0.4-0.6-1.3-1-2.4-1h-2.7h-16.1c-1.5,0-2.7,0.8-2.7,1.7v3.3c0.1,0,0.1,0,0.2,0
	C233.3,113.7,233.5,113.8,233.7,113.8"/>
<path class="st0" d="M68.8,111.6v2.1c1-0.4,2.1-0.7,2.6-0.7h13.1h5.8c1.5,0,2.6,0.9,2.6,2.1v0.9v1.5h0.1l1.5,0v-0.8
	c0-0.2,0.1-0.4,0.2-0.6c0.1-0.5,0.5-1.1,1.1-1.6h-2.9v-0.2V111v-0.7c0-0.9-1.2-1.7-2.6-1.7h-5.8H72h-0.6c-1.1,0-2,0.5-2.4,1.1
	c0,0,0,0,0,0c-0.1,0.2-0.2,0.4-0.2,0.5V111.6z"/>
<path class="st0" d="M96.2,114.2c0.9-0.7,1.9-1.2,2.7-1.2h1.6h9.5h7.8c1.4,0,2.6,0.9,2.6,2.1v1.4l-0.1,0.2v0.9h3.5v-0.9
	c0-0.1,0-0.1,0-0.1c0-0.1-0.2-0.7-0.2-1.5c0-1.1,1.2-2.1,2.6-2.1h0.6h16.4h1.8c0.7,0,1.7,0.4,2.5,1V111v-0.8c0,0,0,0,0-0.1
	c0-0.7-0.7-1.2-1.6-1.5c-0.3-0.1-0.6-0.1-1-0.1h-1.8h-16.4h-0.6c-1.3,0-2.4,0.6-2.5,1.5c0,0,0,0.1,0,0.1c0,0,0,0.1,0,0.1v0.8v3.5
	h-3.3v-3.5v-0.8c0-0.9-1.2-1.7-2.6-1.7h-7.8h-9.5h-1.6c-0.4,0-0.8,0.1-1.1,0.2c-0.7,0.2-1.2,0.6-1.4,1c-0.1,0.2-0.2,0.3-0.2,0.5v0.8
	v0.1V114.2z"/>
<path class="st0" d="M20.6,113.1h13.7h1.3c1.3,0,2.2,0.5,2.4,1.3c0.1-0.1,0.1-0.1,0.2-0.2c0,0,0,0,0,0v-2.9v-1
	c0-0.9-1.2-1.7-2.7-1.7h-1.3H20.7h-4c-0.7,0-1.3,0.2-1.8,0.5c-0.5,0.3-0.8,0.7-0.8,1.2v3.1c1.2-0.2,2.2-0.2,2.6-0.2H20.6z"/>
<path class="st0" d="M274.3,108.6h-10.6h-0.8c-1.5,0-2.6,0.8-2.6,1.7v0.6v2.5c0.4,0.1,0.7,0.2,1,0.3c0.5-0.3,1.1-0.5,1.7-0.5h0.8h17
	h1.2c0.3,0,1.3,0.1,2.5,0.2v-3c0-0.2-0.1-0.4-0.2-0.5c0,0,0-0.1,0-0.1h0c-0.1-0.2-0.3-0.3-0.5-0.5c0,0-0.1,0-0.1-0.1
	c-0.5-0.3-1.1-0.5-1.8-0.5H274.3z"/>
<path class="st0" d="M295.1,116.2c0,0,0-0.1,0-0.1h0c-0.1-0.2-0.3-0.4-0.5-0.5c0,0-0.1-0.1-0.1-0.1c-0.5-0.3-1.2-0.5-1.9-0.5h-20.2
	c-1.6,0-2.8,0.8-2.8,1.8v4.6H266v-4.1l0-0.4c0-0.3-0.1-0.5-0.3-0.7c-0.4-0.6-1.4-1.1-2.5-1.1h-20c-1.6,0-2.8,0.8-2.8,1.8v4.6h-3.5
	v-4.6c0-0.3-0.1-0.5-0.3-0.8c-0.4-0.6-1.4-1.1-2.5-1.1h-20c-1.5,0-2.8,0.8-2.8,1.8l0,1v3.6h-3.5v-4.6c0-0.3-0.2-0.6-0.4-0.9
	c-0.4-0.4-0.9-0.7-1.7-0.8c0,0,0,0-0.1,0c-0.2,0-0.4-0.1-0.7-0.1h-20.1c-1.5,0-2.8,0.8-2.8,1.8v4.6h-3.5v-4.6c0-0.3-0.1-0.5-0.3-0.8
	c0,0-0.1,0-0.1-0.1c-0.5-0.5-1.4-0.9-2.4-0.9h-20.1c-1.5,0-2.8,0.8-2.8,1.8v4.6h-3.5v-4.6c0,0,0,0,0-0.1c0-0.7-0.7-1.3-1.7-1.6
	c-0.3-0.1-0.7-0.1-1-0.1h-20c-1.4,0-2.5,0.7-2.7,1.6c0,0,0,0.1,0,0.1c0,0,0,0.1,0,0.1v4.6h-3.5v-4.6c0-1-1.2-1.8-2.8-1.8H97.4
	c-0.4,0-0.8,0.1-1.2,0.2c-0.7,0.2-1.2,0.6-1.5,1c-0.1,0.2-0.2,0.4-0.2,0.6v4.6h-3.5v-4.6c0-1-1.2-1.8-2.8-1.8H68.1
	c-1.2,0-2.2,0.5-2.6,1.2c0,0,0,0,0,0c-0.1,0.2-0.2,0.4-0.2,0.6v4.6h-3.5v-4.6c0-1-1.3-1.8-2.8-1.8H39c-0.3,0-0.5,0.1-0.8,0.1
	c-0.8,0.2-1.4,0.5-1.7,1c-0.1,0.1-0.1,0.2-0.1,0.3c0,0,0,0.1,0,0.1c0,0.1-0.1,0.2-0.1,0.3v4.6h-3.5v-4.6c0-1-1.3-1.8-2.8-1.8H9.7
	c-0.7,0-1.4,0.2-1.9,0.5c-0.5,0.3-0.9,0.8-0.9,1.3v9.7h288.3v-9.7C295.3,116.6,295.2,116.4,295.1,116.2"/>
<polygon class="st0" points="223.5,62.3 216.2,62.3 216.2,62.3 211.3,74.8 210.3,72.3 206.5,62.3 199.2,62.3 199.2,62.3 208.1,82.3 
	208.2,82.3 214.6,82.3 214.6,82.3 "/>
<path class="st0" d="M236.7,61.8h-0.2c-2.1,0-4,0.6-5.5,1.5c-3.1,1.8-5,5.1-5,8.8c0,5.4,3.9,9.8,10.6,10.1h0.7
	c3.4,0,6.5-1.5,8.3-3.4c0,0,0.1-0.1,0.1-0.1l-2.5-2.9c-1.2,1-2.6,1.6-4.6,1.6c-0.8,0-1.5-0.1-2.1-0.2c-1.7-0.4-2.9-1.3-3.4-2.6
	c-0.2-0.5-0.3-1.1-0.3-1.7h13.5h0c0.1-0.5,0.1-0.9,0.2-1.3v-0.8C246.3,65.8,242,61.8,236.7,61.8 M237.4,69h-4.3
	c0.1-0.4,0.3-0.7,0.5-1c0.8-1.2,1.9-1.9,2.9-2h0.2c2,0,3.2,1.3,3.2,3H237.4z"/>
<path class="st0" d="M131.6,81.9L131.6,81.9V69.3c0-3-1.5-5.9-5-7c-0.9-0.3-2-0.4-3.2-0.4c-2.8,0-5.3,1.6-6.5,3l-3-2.6h-1.4v19.6
	h0.1h6.6V71.7v-2.5c0.8-1.3,1.7-2.2,3.4-2.2c1.2,0,1.9,0.5,2.2,2c0.1,0.6,0.2,1.2,0.2,2.1V72v9.9h0H131.6z"/>
<path class="st1" d="M82,67.6c-2.7,0-4.4,2.1-4.4,4.4c0,2.4,1.6,4.4,4.4,4.4c2.5,0,3.7-0.8,5.1-1.5v5.5c-1.7,1.1-3.2,1.8-5.7,1.8
	c-6.3,0-10.7-4.6-10.7-10.2c0-5.6,4.4-10.2,10.7-10.2c2.5,0,4,0.6,5.7,1.8v5.5C85.7,68.6,84.6,67.6,82,67.6"/>
<path class="st0" d="M100.1,58.7c1.8,0,3.3-1.4,3.3-3.2c0-1.8-1.5-3.3-3.3-3.3h0c-1.8,0-3.2,1.5-3.3,3.2v0c0,0.1,0,0.2,0,0.3
	c0,0.1,0,0.1,0,0.2c0.1,0.4,0.2,0.8,0.4,1.1C97.8,58.1,98.9,58.7,100.1,58.7"/>
<polygon class="st0" points="103.5,81.9 103.5,81.9 103.5,62.3 103.5,62.3 96.8,62.3 96.8,81.9 96.8,81.9 "/>
<path class="st0" d="M189.4,58.7c-1.8,0-3.3-1.4-3.3-3.2c0-1.8,1.5-3.3,3.3-3.3h0c1.8,0,3.2,1.5,3.2,3.2v0c0,0.1,0,0.2,0,0.3
	c0,0.1,0,0.1,0,0.2c-0.1,0.4-0.2,0.8-0.4,1.1C191.7,58.1,190.7,58.7,189.4,58.7"/>
<polygon class="st0" points="186.1,81.9 186.1,81.9 186.1,62.3 186.1,62.3 192.8,62.3 192.8,81.9 192.8,81.9 "/>
<path class="st0" d="M147.1,61.8h-0.2c-6.3,0.1-10.6,4.7-10.6,10.3c0,0.2,0,0.4,0,0.6c0.3,5.1,4.2,9.2,10.5,9.5h0.7
	c3.5,0,6.6-1.5,8.5-3.5v0l-2.5-2.9c-1.2,1-2.6,1.6-4.6,1.6c-0.8,0-1.5-0.1-2.1-0.2c-1.8-0.4-3-1.4-3.5-2.7c-0.2-0.5-0.3-1-0.2-1.6
	h13.5c0.1-0.5,0.1-0.9,0.2-1.3v-0.8C156.7,65.8,152.4,61.8,147.1,61.8 M149.8,69h-5.4h-0.9c0.7-1.9,2.1-2.9,3.4-3h0.2
	c2,0,3.2,1.3,3.2,3H149.8z"/>
<polygon class="st0" points="144.2,60.1 146.9,58 156.2,50.9 152,46.6 146.9,53.3 142.8,58.6 144.2,60.1 "/>
<path class="st0" d="M175.6,61.8c-2.4,0-5.1,1.3-6.4,2.7l-2.7-2.3h-1.4v0v19.5h6.7h0v0V71.5v-2.9l4.3,4.3h0h1.3h0V62.2
	C177.1,62,176.4,61.8,175.6,61.8"/>
<path class="st0" d="M280.7,44L280.7,44l0-30.6c0,0,0.4-4.3-4.5-4.2H31.4c0,0-3.8-0.3-3.8,3.6v57.9l3-3l0-8.5l0-42.1v-4.2
	c0,0-0.2-0.8,0.8-0.9h244.9c0,0,1.4,0.1,1.5,1.5v26.8L280.7,44z"/>
<path class="st2" d="M212.3,84.6L212.3,84.6L212.3,84.6z"/>
<path class="st2" d="M122.4,84.1"/>
<path class="st3" d="M94.3,57.8L94.3,57.8c0,0.1,0,0.2,0,0.3C94.3,58,94.3,57.9,94.3,57.8L94.3,57.8z"/>
<path class="st3" d="M94.3,58.3c0,0,0-0.1,0-0.2C94.3,58.2,94.3,58.2,94.3,58.3"/>
<path class="st3" d="M190.3,57.8L190.3,57.8c0,0.1,0,0.2,0,0.3C190.3,58,190.3,57.9,190.3,57.8L190.3,57.8z"/>
<path class="st3" d="M190.3,58.3c0,0,0-0.1,0-0.2C190.3,58.2,190.3,58.2,190.3,58.3"/>
<path class="st2" d="M165.7,68.6L165.7,68.6L165.7,68.6C165.7,68.6,165.7,68.6,165.7,68.6"/>
<polygon class="st2" points="169.4,84.1 169.4,84.1 169.4,84.1 "/>
<path class="st2" d="M211.7,85L211.7,85L211.7,85z"/>
<path class="st2" d="M122,84.6"/>
<path class="st3" d="M94,58.2L94,58.2c0,0.1,0,0.2,0,0.4C94,58.5,94,58.4,94,58.2L94,58.2z"/>
<path class="st3" d="M94,58.7c0-0.1,0-0.1,0-0.2C94,58.6,94,58.7,94,58.7"/>
<path class="st3" d="M189.8,58.2L189.8,58.2c0,0.1,0,0.2,0,0.4C189.8,58.5,189.8,58.4,189.8,58.2L189.8,58.2z"/>
<path class="st3" d="M189.8,58.7c0-0.1,0-0.1,0-0.2C189.8,58.6,189.8,58.7,189.8,58.7"/>
<path class="st2" d="M165.2,69L165.2,69L165.2,69C165.2,69,165.2,69,165.2,69"/>
<polygon class="st2" points="169,84.5 168.9,84.5 168.9,84.5 "/>
</svg>
