<?xml version="1.0" encoding="utf-8"?>
<!-- Generator: Adobe Illustrator 19.2.0, SVG Export Plug-In . SVG Version: 6.00 Build 0)  -->
<svg version="1.1" id="Calque_1" xmlns="http://www.w3.org/2000/svg" xmlns:xlink="http://www.w3.org/1999/xlink" x="0px" y="0px"
	 viewBox="0 0 1000 1000" style="enable-background:new 0 0 1000 1000;" xml:space="preserve">
<style type="text/css">
	.st0{clip-path:url(#SVGID_2_);}
	.st1{opacity:0.5;clip-path:url(#SVGID_4_);}
	.st2{clip-path:url(#SVGID_6_);fill:#141414;}
	.st3{clip-path:url(#SVGID_2_);fill:#FFFFFF;}
	.st4{clip-path:url(#SVGID_8_);fill:#FFFFFF;}
</style>
<g>
	<defs>
		<rect id="SVGID_1_" x="64.7" y="56.4" width="882.9" height="884.6"/>
	</defs>
	<clipPath id="SVGID_2_">
		<use xlink:href="#SVGID_1_"  style="overflow:visible;"/>
	</clipPath>
	<g class="st0">
		<defs>
			<rect id="SVGID_3_" x="64.7" y="56.4" width="882.9" height="884.6"/>
		</defs>
		<clipPath id="SVGID_4_">
			<use xlink:href="#SVGID_3_"  style="overflow:visible;"/>
		</clipPath>
		<g class="st1">
			<g>
				<defs>
					<rect id="SVGID_5_" x="78.3" y="72.6" width="859.8" height="850.8"/>
				</defs>
				<clipPath id="SVGID_6_">
					<use xlink:href="#SVGID_5_"  style="overflow:visible;"/>
				</clipPath>
				<path class="st2" d="M86.4,500.7c0-233,188.8-421.8,421.8-421.8c233,0,421.8,188.8,421.8,421.8S741.1,922.5,508.2,922.5
					C275.2,922.5,86.4,733.6,86.4,500.7"/>
			</g>
		</g>
	</g>
	<polygon class="st3" points="664.9,498.7 403.6,649.6 403.6,347.9 	"/>
	<g class="st0">
		<defs>
			<rect id="SVGID_7_" x="64.7" y="56.4" width="882.9" height="884.6"/>
		</defs>
		<clipPath id="SVGID_8_">
			<use xlink:href="#SVGID_7_"  style="overflow:visible;"/>
		</clipPath>
		<path class="st4" d="M506.2,918.3c-231.5,0-419.1-188-419.1-419.9c0-232,187.7-420,419.1-420s419.1,188,419.1,419.9
			C925.3,730.3,737.7,918.3,506.2,918.3 M506.2,56.4c-243.8,0-441.5,198-441.5,442.3S262.4,941,506.2,941s441.5-198,441.5-442.3
			S750,56.4,506.2,56.4"/>
	</g>
</g>
</svg>
